<svg xmlns="http://www.w3.org/2000/svg" width="256" height="256"><g transform="matrix(2.81 0 0 2.81 1.407 1.407)" stroke-width="0" stroke-miterlimit="10" fill="none"><circle cx="45" cy="45" r="45" fill="#2196f3"/><path d="M57.332 70.088c-1.955.001-4.074-.313-6.32-.946-6.303-1.777-12.904-5.885-18.586-11.568-5.682-5.682-9.79-12.283-11.568-18.586-1.84-6.528-.978-11.999 2.429-15.406.124-.124.25-.244.38-.36a.983.983 0 01.112-.131l1.819-1.819a4.61 4.61 0 013.282-1.36 4.61 4.61 0 013.282 1.36l6.976 6.977a4.647 4.647 0 010 6.563L36.149 37.8a1.934 1.934 0 000 2.732L49.468 53.85c.729.729 2.002.729 2.732 0l2.988-2.988a4.649 4.649 0 016.564-.001l6.977 6.977c.876.876 1.359 2.042 1.359 3.281s-.483 2.405-1.359 3.281l-1.819 1.819a1.18 1.18 0 01-.133.114c-.117.13-.236.256-.36.379-2.235 2.236-5.359 3.376-9.085 3.376z" fill="#fff"/></g></svg>